<svg width="130" height="130" viewBox="0 0 130 130" fill="none" xmlns="http://www.w3.org/2000/svg">
<path d="M121.976 58.4497L121.673 56.9376L126.814 56.0304L122.641 55.0022L122.46 53.853L126.149 51.4941L121.008 52.4014L120.706 50.8893L128.387 49.6191L128.689 51.1312L128.75 51.3127L124.395 54.0949L129.415 55.3651L129.718 57.1191L121.976 58.4497Z" fill="#231F20"/>
<path d="M123.549 67.5208L122.097 67.5208L122.097 62.9242L129.839 63.0451L129.839 67.6418L128.387 67.6418L128.387 64.6177L126.694 64.6177L126.633 67.3394L125.182 67.3394L125.242 64.6177L123.488 64.5572L123.549 67.5208Z" fill="#231F20"/>
<path d="M128.327 78.5882L120.645 77.1971L120.947 75.685L124.153 76.2294L124.637 73.6891L121.431 73.1447L121.734 71.6326L129.415 73.0237L129.113 74.5358L126.149 73.9915L125.665 76.5318L128.629 77.0761L128.327 78.5882Z" fill="#231F20"/>
<path d="M119.254 92.8601C117.198 92.0134 116.17 89.6547 117.077 87.538C117.863 85.6632 119.799 84.6955 121.734 85.1793L122.157 84.1512L119.133 82.9416L119.738 81.4902L126.935 84.4536L126.33 85.9051L123.488 84.756L123.064 85.7841C124.637 86.8727 125.242 88.808 124.516 90.6224C123.669 92.6786 121.311 93.7068 119.254 92.8601ZM119.859 91.4086C121.25 91.9529 122.641 91.4086 123.185 90.0176C123.73 88.7476 123.246 87.2961 121.794 86.6913C120.403 86.147 119.012 86.6913 118.468 88.0823C117.924 89.4733 118.468 90.8643 119.859 91.4086Z" fill="#231F20"/>
<path d="M79.4618 119.709L80.9134 119.225L82.607 124.185L82.9699 119.83L84.0586 119.467L86.9013 122.673L85.2078 117.713L86.7199 117.29L89.1393 124.669L87.5062 125.213L83.9981 121.342L83.5747 126.483L81.9416 127.027L79.4618 119.709Z" fill="#231F20"/>
<path d="M70.7538 122.612L70.5119 121.16L74.5641 120.616L75.1085 120.556L76.1971 128.297L74.6851 128.479L71.7215 128.902L71.4796 127.451L74.4432 127.027L74.2012 125.334L71.4796 125.757L71.2981 124.366L74.0198 123.943L73.7779 122.249L70.7538 122.612Z" fill="#231F20"/>
<path d="M60.5955 129.143L60.7769 121.341L62.289 121.401L62.2285 124.607L64.8293 124.668L64.9503 121.401L66.4624 121.462L66.2809 129.264L64.7689 129.204L64.8293 126.119L62.2285 126.059L62.1681 129.143L60.5955 129.143Z" fill="#231F20"/>
<path d="M45.1124 122.25C45.6567 120.012 47.7734 118.742 50.0111 119.286C51.9464 119.77 53.2164 121.524 53.035 123.52L54.1236 123.762L54.9098 120.556L56.3613 121.04L54.4865 128.6L53.035 128.237L53.7607 125.334L52.6116 125.032C51.7649 126.725 49.9506 127.693 48.0153 127.209C45.8986 126.665 44.568 124.488 45.1124 122.25ZM46.5638 122.613C46.201 124.064 47.0476 125.395 48.4386 125.697C49.8296 126 51.0997 125.334 51.523 123.822C51.8859 122.371 51.0997 121.101 49.6482 120.738C48.2572 120.436 46.9267 121.161 46.5638 122.613Z" fill="#231F20"/>
<path d="M7.98459 69.9988L8.28701 71.5109L3.14592 72.4181L7.31927 73.4463L7.50072 74.5955L3.81123 76.9544L8.95232 76.0471L9.25474 77.5592L1.57335 78.8294L1.27093 77.3173L1.21045 77.1358L5.56525 74.3536L0.545127 73.0834L0.242712 71.3294L7.98459 69.9988Z" fill="#231F20"/>
<path d="M6.41107 60.9287L7.86263 60.9287L7.74167 65.0415L7.74167 65.5253L-1.88825e-06 65.4044L0.0604763 63.8923L0.0604757 60.8682L1.51204 60.8682L1.51204 63.8923L3.20553 63.8923L3.26601 61.1706L4.71758 61.1706L4.65709 63.8923L6.41107 63.9528L6.41107 60.9287Z" fill="#231F20"/>
<path d="M1.63311 49.8614L9.31464 51.2525L9.01222 52.7646L5.80655 52.2202L5.32267 54.7606L8.52834 55.3049L8.22592 56.817L0.544401 55.4259L0.846824 53.9138L3.81056 54.4581L4.29443 51.9178L1.33069 51.3735L1.63311 49.8614Z" fill="#231F20"/>
<path d="M10.8257 35.5911C12.882 36.4378 13.8497 38.857 13.003 40.9132C12.2167 42.788 10.2814 43.7557 8.28566 43.2114L7.86231 44.2395L10.8862 45.4491L10.2814 46.9006L3.08453 43.9371L3.68932 42.4857L6.5318 43.6347L7.01562 42.5461C5.44319 41.4575 4.83841 39.5222 5.56415 37.7079C6.35036 35.7121 8.64853 34.7444 10.8257 35.5911ZM10.221 37.0426C8.82996 36.4983 7.43897 37.0426 6.89467 38.4336C6.35036 39.7037 6.83419 41.1551 8.28566 41.7599C9.67666 42.3042 11.0677 41.7599 11.5515 40.4294C12.0958 39.0384 11.612 37.5869 10.221 37.0426Z" fill="#231F20"/>
<path d="M51.3252 9.51192L49.8725 10.0286L48.2652 5.05666L47.878 9.33321L46.8115 9.64711L43.9325 6.3661L45.5398 11.338L44.0872 11.8547L41.6367 4.48388L43.0894 3.9672L43.2761 3.92596L46.7599 7.81757L47.1815 2.63256L48.8208 2.07464L51.3252 9.51192Z" fill="#231F20"/>
<path d="M60.0286 6.53211L60.2381 8.01338L56.1675 8.56017L55.6738 8.6301L54.5974 0.916709L59.0415 0.287412L59.251 1.76868L56.2883 2.18822L56.5391 3.85622L59.2486 3.53179L59.4043 4.94663L56.6948 5.27105L56.8791 6.99291L60.0286 6.53211Z" fill="#231F20"/>
<path d="M70.1764 0.177102L69.9708 7.93871L68.3943 7.89531L68.4943 4.62226L65.889 4.53196L65.7891 7.80501L64.2127 7.76161L64.4183 -1.42695e-07L65.9948 0.043403L65.9201 3.07587L68.5253 3.16616L68.6 0.133699L70.1764 0.177102Z" fill="#231F20"/>
<path d="M85.6364 7.02578C85.1025 9.21962 82.9603 10.5153 80.7664 9.98146C78.8132 9.47282 77.6 7.70401 77.7477 5.71294L76.6777 5.47924L75.9228 8.62279L74.4381 8.28484L76.3272 0.699769L77.8119 1.03771L77.0821 3.94069L78.206 4.24083C78.9964 2.49951 80.9142 1.60592 82.7471 2.10197C84.8745 2.68965 86.1702 4.83194 85.6364 7.02578ZM84.1517 6.68783C84.4896 5.20312 83.7072 3.96587 82.3428 3.64052C80.9783 3.31517 79.6873 4.03118 79.2829 5.56973C78.9449 7.05444 79.7274 8.2917 81.0918 8.61705C82.5226 8.88855 83.7599 8.1061 84.1517 6.68783Z" fill="#231F20"/>
<path d="M21.2874 105.68C20.8196 105.212 20.0612 105.212 19.5935 105.68C19.1257 106.148 19.1257 106.906 19.5935 107.374C20.0612 107.842 20.8196 107.842 21.2874 107.374C21.7551 106.906 21.7551 106.148 21.2874 105.68Z" fill="#231F20"/>
<path d="M106.674 107.736C106.206 107.268 105.448 107.268 104.98 107.736C104.512 108.204 104.512 108.962 104.98 109.43C105.448 109.898 106.206 109.898 106.674 109.43C107.142 108.962 107.142 108.204 106.674 107.736Z" fill="#231F20"/>
<path d="M24.1897 20.1705C23.722 19.7028 22.9636 19.7028 22.4958 20.1705C22.0281 20.6383 22.0281 21.3967 22.4958 21.8645C22.9636 22.3322 23.722 22.3322 24.1897 21.8645C24.6575 21.3967 24.6575 20.6383 24.1897 20.1705Z" fill="#231F20"/>
<path d="M107.824 21.5614C107.356 21.0937 106.597 21.0937 106.13 21.5614C105.662 22.0292 105.662 22.7876 106.13 23.2553C106.597 23.7231 107.356 23.7231 107.824 23.2553C108.291 22.7876 108.291 22.0292 107.824 21.5614Z" fill="#231F20"/>
</svg>
