<svg width="173" height="178" viewBox="0 0 173 178" fill="none" xmlns="http://www.w3.org/2000/svg">
<path d="M144.335 82.1445L144.033 80.6324L149.174 79.7251L145 78.6969L144.819 77.5477L148.508 75.1888L143.367 76.0961L143.065 74.584L150.746 73.3138L151.049 74.8259L151.109 75.0074L146.754 77.7896L151.774 79.0598L152.077 80.8138L144.335 82.1445Z" fill="white"/>
<path d="M145.908 91.2156L144.457 91.2156L144.457 87.1029L144.457 86.619L152.199 86.74L152.199 88.3125L152.199 91.3366L150.747 91.3366L150.747 88.3125L149.054 88.3125L148.993 91.0342L147.542 91.0342L147.602 88.3125L145.848 88.252L145.908 91.2156Z" fill="white"/>
<path d="M150.686 102.283L143.004 100.892L143.307 99.3799L146.512 99.9242L146.996 97.3839L143.791 96.8395L144.093 95.3275L151.775 96.7186L151.472 98.2307L148.508 97.6863L148.025 100.227L150.988 100.771L150.686 102.283Z" fill="white"/>
<path d="M141.614 116.555C139.558 115.708 138.53 113.35 139.437 111.233C140.223 109.358 142.158 108.391 144.094 108.874L144.517 107.846L141.493 106.637L142.098 105.185L149.295 108.149L148.69 109.6L145.847 108.451L145.424 109.479C146.997 110.568 147.601 112.503 146.876 114.317C146.029 116.374 143.67 117.402 141.614 116.555ZM142.219 115.104C143.61 115.648 145.001 115.104 145.545 113.713C146.089 112.443 145.606 110.991 144.154 110.386C142.763 109.842 141.372 110.386 140.828 111.777C140.283 113.168 140.828 114.559 142.219 115.104Z" fill="white"/>
<path d="M101.822 143.404L103.273 142.92L104.967 147.88L105.33 143.525L106.418 143.162L109.261 146.367L107.568 141.408L109.08 140.984L111.499 148.363L110.047 148.847L109.866 148.908L106.358 145.037L105.934 150.178L104.301 150.722L101.822 143.404Z" fill="white"/>
<path d="M93.1136 146.307L92.8716 144.856L96.9239 144.311L97.4682 144.251L98.5569 151.992L97.0448 152.174L94.0813 152.597L93.8393 151.146L96.8029 150.722L96.561 149.029L93.8393 149.452L93.6579 148.061L96.3796 147.638L96.1376 145.944L93.1136 146.307Z" fill="white"/>
<path d="M82.9552 152.838L83.1367 145.036L84.6488 145.097L84.5883 148.302L87.1891 148.363L87.3101 145.097L88.8222 145.157L88.6407 152.959L87.1286 152.899L87.1891 149.814L84.5883 149.754L84.5278 152.838L82.9552 152.838Z" fill="white"/>
<path d="M67.4722 145.945C68.0165 143.707 70.1333 142.437 72.371 142.981C74.3063 143.465 75.5763 145.219 75.3949 147.215L76.4835 147.457L77.2697 144.251L78.7212 144.735L76.8463 152.295L75.3949 151.932L76.1206 149.029L74.9715 148.727C74.1248 150.42 72.3105 151.388 70.3752 150.904C68.2585 150.36 66.9279 148.182 67.4722 145.945ZM68.9237 146.308C68.5608 147.759 69.4075 149.09 70.7985 149.392C72.1895 149.694 73.4596 149.029 73.8829 147.517C74.2458 146.066 73.4596 144.796 72.0081 144.433C70.6171 144.13 69.2866 144.856 68.9237 146.308Z" fill="white"/>
<path d="M30.3446 93.6937L30.647 95.2058L25.5059 96.1131L29.6792 97.1413L29.8607 98.2905L26.1712 100.649L31.3123 99.7421L31.6147 101.254L23.9333 102.524L23.6309 101.012L23.5704 100.831L27.9252 98.0486L22.905 96.7784L22.6026 95.0244L30.3446 93.6937Z" fill="white"/>
<path d="M28.771 84.6238L30.2226 84.6238L30.1016 88.7365L30.1016 89.2204L22.3599 89.0994L22.4204 87.5874L22.4204 84.5633L23.872 84.5633L23.872 87.5874L25.5655 87.5874L25.626 84.8657L27.0775 84.8657L27.017 87.5874L28.771 87.6479L28.771 84.6238Z" fill="white"/>
<path d="M23.993 73.5564L31.6744 74.9476L31.372 76.4597L28.1664 75.9153L27.6825 78.4556L30.8881 79L30.5857 80.5121L22.9042 79.121L23.2067 77.6089L26.1704 78.1532L26.6543 75.6129L23.6905 75.0685L23.993 73.5564Z" fill="white"/>
<path d="M33.1851 59.2862C35.2413 60.1329 36.209 62.552 35.3623 64.6083C34.5761 66.4831 32.6408 67.4508 30.645 66.9065L30.2216 67.9346L33.2456 69.1442L32.6408 70.5957L25.4439 67.6322L26.0487 66.1807L28.8911 67.3298L29.375 66.2412C27.8025 65.1526 27.1977 63.2173 27.9235 61.403C28.7097 59.4072 31.0079 58.4395 33.1851 59.2862ZM32.5803 60.7377C31.1893 60.1934 29.7983 60.7377 29.254 62.1287C28.7097 63.3987 29.1935 64.8502 30.645 65.455C32.036 65.9993 33.427 65.455 33.9108 64.1245C34.4551 62.7335 33.9713 61.282 32.5803 60.7377Z" fill="white"/>
<path d="M73.6849 33.2067L72.2323 33.7234L70.625 28.7515L70.2378 33.028L69.1712 33.3419L66.2923 30.0609L67.8996 35.0329L66.447 35.5495L63.9965 28.1787L65.4491 27.662L65.6359 27.6208L69.1197 31.5124L69.5412 26.3274L71.1806 25.7695L73.6849 33.2067Z" fill="white"/>
<path d="M82.3885 30.2272L82.598 31.7085L78.5274 32.2553L78.0336 32.3252L76.9573 24.6118L78.4386 24.402L81.4014 23.9825L81.6109 25.4638L78.6482 25.8833L78.899 27.5513L81.6085 27.2269L81.7642 28.6417L79.0547 28.9661L79.239 30.688L82.3885 30.2272Z" fill="white"/>
<path d="M92.5364 23.8719L92.3308 31.6336L90.7544 31.5901L90.8543 28.3171L88.249 28.2268L88.1491 31.4999L86.5727 31.4564L86.7783 23.6948L88.3548 23.7382L88.2801 26.7707L90.8853 26.861L90.96 23.8285L92.5364 23.8719Z" fill="white"/>
<path d="M107.996 30.7207C107.462 32.9146 105.32 34.2103 103.126 33.6764C101.173 33.1678 99.9599 31.399 100.108 29.4079L99.0376 29.1742L98.2827 32.3177L96.798 31.9798L98.6871 24.3947L100.172 24.7327L99.442 27.6356L100.566 27.9358C101.356 26.1945 103.274 25.3009 105.107 25.7969C107.234 26.3846 108.53 28.5269 107.996 30.7207ZM106.512 30.3828C106.85 28.8981 106.067 27.6608 104.703 27.3355C103.338 27.0101 102.047 27.7261 101.643 29.2647C101.305 30.7494 102.087 31.9866 103.452 32.312C104.883 32.5835 106.12 31.801 106.512 30.3828Z" fill="white"/>
<path d="M43.647 129.375C43.1792 128.907 42.4209 128.907 41.9531 129.375C41.4853 129.842 41.4853 130.601 41.9531 131.069C42.4209 131.536 43.1792 131.536 43.647 131.069C44.1148 130.601 44.1148 129.842 43.647 129.375Z" fill="white"/>
<path d="M129.034 131.431C128.566 130.963 127.808 130.963 127.34 131.431C126.872 131.899 126.872 132.657 127.34 133.125C127.808 133.592 128.566 133.592 129.034 133.125C129.502 132.657 129.502 131.899 129.034 131.431Z" fill="white"/>
<path d="M46.5494 43.8654C46.0816 43.3976 45.3232 43.3976 44.8554 43.8654C44.3877 44.3331 44.3877 45.0915 44.8554 45.5593C45.3232 46.0271 46.0816 46.0271 46.5493 45.5593C47.0171 45.0915 47.0171 44.3331 46.5494 43.8654Z" fill="white"/>
<path d="M130.183 45.256C129.715 44.7882 128.957 44.7882 128.489 45.256C128.021 45.7238 128.021 46.4822 128.489 46.9499C128.957 47.4177 129.715 47.4177 130.183 46.9499C130.651 46.4822 130.651 45.7238 130.183 45.256Z" fill="white"/>
</svg>
