<?xml version="1.0" encoding="utf-8"?>
<!DOCTYPE svg PUBLIC "-//W3C//DTD SVG 1.1//EN" "http://www.w3.org/Graphics/SVG/1.1/DTD/svg11.dtd">
<svg version="1.1" xmlns="http://www.w3.org/2000/svg" xmlns:xlink="http://www.w3.org/1999/xlink" x="0px" y="0px" viewBox="0 0 1000 1000" enable-background="new 0 0 1000 1000" width="24" xml:space="preserve" fill="#231F20">

<g><g><path d="M949.4,671.9c-29.2-35-63.5-64.9-96-96.6c-29.3-28.6-31.2-45.2-7.6-78.2c25.7-36,53.4-70.6,79.3-106.5c24.2-33.5,49-66.9,61.7-107c8.1-25.5,0.9-36.8-25.2-41.3c-4.5-0.8-9.2-0.8-13.8-0.8l-155.3-0.2c-19.1-0.3-29.7,8.1-36.5,25c-9.1,22.9-18.5,45.8-29.4,67.9c-24.7,50.1-52.2,98.6-90.9,139.6c-8.5,9-17.9,20.5-32.2,15.8c-17.8-6.5-23.1-35.9-22.8-45.8l-0.2-179.2c-3.5-25.6-9.1-37-34.6-42l-161.3,0c-21.5,0-32.3,8.3-43.8,21.8c-6.6,7.8-8.6,12.8,5,15.4c26.8,5.1,41.9,22.4,45.9,49.2c6.4,42.9,6,86,2.3,129c-1.1,12.6-3.2,25.1-8.2,36.9c-7.8,18.5-20.4,22.2-36.9,10.9c-15-10.3-25.5-24.8-35.8-39.3c-38.7-54.7-69.5-113.6-94.7-175.5c-7.3-17.9-19.8-28.7-38.8-29c-46.6-0.7-93.2-0.9-139.8,0c-28,0.5-36.4,14.1-25,39.5c50.7,112.9,107.2,222.6,180.9,322.5c37.9,51.3,81.3,96.6,137.5,128.7c63.6,36.4,132.1,47.3,204.3,44c33.8-1.6,43.9-10.4,45.5-44c1.1-23,3.7-45.9,15-66.6c11.2-20.3,28-24.2,47.5-11.5c9.7,6.3,17.9,14.4,25.7,22.9c19,20.8,37.3,42.2,57.1,62.3c24.8,25.2,54.1,40.1,90.9,37l142.7,0c23-1.5,34.9-29.7,21.7-55.4C974.5,703.4,962.3,687.4,949.4,671.9z"/></g><g></g><g></g><g></g><g></g><g></g><g></g><g></g><g></g><g></g><g></g><g></g><g></g><g></g><g></g><g></g></g>
</svg>