<?xml version="1.0" encoding="utf-8"?>
<!-- Generator: Adobe Illustrator 22.0.1, SVG Export Plug-In . SVG Version: 6.00 Build 0)  -->
<svg version="1.1" id="Слой_6" xmlns="http://www.w3.org/2000/svg" xmlns:xlink="http://www.w3.org/1999/xlink" x="0px" y="0px"
	 viewBox="0 0 550 1980.2" style="enable-background:new 0 0 550 1980.2;" xml:space="preserve">
<style type="text/css">
	.st0{fill:#C4C4C4;filter:url(#Adobe_OpacityMaskFilter);}
	.st1{mask:url(#mask0_16_);}
	.st2{fill:none;stroke:#F2F7F7;stroke-width:3;stroke-miterlimit:10;}
	.st3{fill:#C4C4C4;filter:url(#Adobe_OpacityMaskFilter_1_);}
	.st4{mask:url(#mask0_17_);}
</style>
<g>
	<defs>
		<filter id="Adobe_OpacityMaskFilter" filterUnits="userSpaceOnUse" x="3.2" y="-0.2" width="579" height="990.2">
			<feColorMatrix  type="matrix" values="1 0 0 0 0  0 1 0 0 0  0 0 1 0 0  0 0 0 1 0"/>
		</filter>
	</defs>
	<mask maskUnits="userSpaceOnUse" x="3.2" y="-0.2" width="579" height="990.2" id="mask0_16_">
		<rect y="-0.2" class="st0" width="550" height="990"/>
	</mask>
	<g class="st1">
		<path class="st2" d="M4.7-0.2V990"/>
		<path class="st2" d="M24.5-0.2V990"/>
		<path class="st2" d="M44.5-0.2V990"/>
		<path class="st2" d="M64.3-0.2v161.7"/>
		<path class="st2" d="M84.1-0.2l0.1,140.2"/>
		<path class="st2" d="M104-0.2l0,116.5"/>
		<path class="st2" d="M123.9-0.2v92.8"/>
		<path class="st2" d="M143.8-0.2V70"/>
		<path class="st2" d="M163.7-0.2v11.6c0,22.7-8.3,44.7-23.4,62.1l-73,84.2c-15.1,17.4-23.4,39.4-23.4,62.1L44.5,990"/>
		<path class="st2" d="M183.5-0.2l0,22.3c0,22.4-8.1,44.1-22.9,61.6l-73.5,86c-14.8,17.3-22.9,39.1-22.9,61.6L64.3,990"/>
		<path class="st2" d="M203.3-0.2v32.7c0,22.5-8.2,44.3-23.1,61.7l-73.1,85.2c-14.9,17.3-23.1,39.2-23.1,61.7V990"/>
		<path class="st2" d="M223-0.2v42.6c0,22.5-8.2,44.4-23.1,61.7l-72.9,85c-14.9,17.3-23.1,39.2-23.1,61.7v178.4
			c0,22.5,8.2,44.4,23.1,61.7l73.2,85.4c14.9,17.3,23.1,39.2,23.1,61.7v352"/>
		<path class="st2" d="M243-0.2V526"/>
		<path class="st2" d="M283-0.2v372"/>
		<path class="st2" d="M302.6-0.2v320.6"/>
		<path class="st2" d="M322.5-0.2v297.4"/>
		<path class="st2" d="M342.3-0.2v274.1"/>
		<path class="st2" d="M362.2-0.2v251"/>
		<path class="st2" d="M382.1-0.2v227.7"/>
		<path class="st2" d="M401.9-0.2v169.8c0,22.5-8.1,44.3-22.9,61.6l-73.3,85.7c-14.8,17.3-22.9,39.1-22.9,61.6V990"/>
		<path class="st2" d="M421.8-0.2v180.1c0,22.6-8.2,44.5-23.2,61.8l-72.9,84.5c-15,17.3-23.2,39.3-23.2,61.8v602"/>
		<path class="st2" d="M441.6-0.2v190.1c0,22.5-8.1,44.3-22.9,61.6l-73.3,85.7c-14.8,17.3-22.9,39.1-22.9,61.6V990"/>
		<path class="st2" d="M481.3-0.2v693.9"/>
		<path class="st2" d="M501.2-0.2v718.4"/>
		<path class="st2" d="M521.1-0.2v741.5"/>
		<path class="st2" d="M540.9-0.2v764.8"/>
		<path class="st2" d="M123.9,192.7v225.9c0,22.5,8.2,44.4,23.1,61.7l73.3,85.4c14.9,17.3,23.1,39.2,23.1,61.7L243,990"/>
		<path class="st2" d="M143.8,169.7v238.9c0,22.5,8.1,44.3,22.9,61.6l73.3,85.7c14.8,17.3,22.9,39.1,22.9,61.6V990"/>
		<path class="st2" d="M163.7,146.4v252c0,22.4,8.1,44.1,22.9,61.5l73.2,85.7c14.8,17.3,22.9,39.1,22.9,61.5V724"/>
		<path class="st2" d="M183.5,123.3v332.9"/>
		<path class="st2" d="M202.9,100.6v378.3"/>
		<path class="st2" d="M223,54.9v447.6"/>
		<path class="st2" d="M104,430.8v559"/>
		<path class="st2" d="M123.9,487.1V990"/>
		<path class="st2" d="M143.8,509.5V990"/>
		<path class="st2" d="M163.7,533.5V990"/>
		<path class="st2" d="M183.5,556.2V990"/>
		<path class="st2" d="M202.9,579.6V990"/>
		<path class="st2" d="M362.2,350.9V990"/>
		<path class="st2" d="M382.1,327.7V990"/>
		<path class="st2" d="M401.9,305.8v361.8c0,22.5,8.2,44.3,23.1,61.7l73.2,85.4c14.9,17.3,23.1,39.2,23.1,61.7V990"/>
		<path class="st2" d="M421.8,281.3v375.9c0,22.5,8.2,44.4,23.2,61.8l72.9,84.7c15,17.3,23.2,39.2,23.2,61.8V990"/>
		<path class="st2" d="M441.7,258.1v389c0,22.4,8.1,44.1,22.9,61.6l73.3,85.7c14.8,17.3,22.9,39.1,22.9,61.6v134"/>
		<path class="st2" d="M461.5,214.8V637c0,22.5,8.1,44.3,22.9,61.6l73.3,85.7c14.8,17.3,22.9,39.1,22.9,61.6V990"/>
		<path class="st2" d="M401.9,682.6V990"/>
		<path class="st2" d="M421.8,725.5V990"/>
		<path class="st2" d="M441.7,748.8V990"/>
		<path class="st2" d="M461.5,771.7V990"/>
		<path class="st2" d="M481.3,795.1V990"/>
		<path class="st2" d="M501.2,818.2V990"/>
		<path class="st2" d="M461.5-0.2v200.3c0,22.5-8.2,44.3-22.9,61.6l-73.2,85.6c-14.9,17.3-22.9,39.1-22.9,61.6V990"/>
		<path class="st2" d="M263-0.2v549"/>
	</g>
	<defs>
		<filter id="Adobe_OpacityMaskFilter_1_" filterUnits="userSpaceOnUse" x="3.2" y="990" width="579" height="990.2">
			<feColorMatrix  type="matrix" values="1 0 0 0 0  0 1 0 0 0  0 0 1 0 0  0 0 0 1 0"/>
		</filter>
	</defs>
	<mask maskUnits="userSpaceOnUse" x="3.2" y="990" width="579" height="990.2" id="mask0_17_">
		<rect y="990.2" class="st3" width="550" height="990"/>
	</mask>
	<g class="st4">
		<path class="st2" d="M4.7,1980.2V990"/>
		<path class="st2" d="M24.5,1980.2V990"/>
		<path class="st2" d="M44.5,1980.2V990"/>
		<path class="st2" d="M64.3,1980.2v-161.7"/>
		<path class="st2" d="M84.1,1980.2l0.1-140.2"/>
		<path class="st2" d="M104,1980.2l0-116.5"/>
		<path class="st2" d="M123.9,1980.2v-92.8"/>
		<path class="st2" d="M143.8,1980.2V1910"/>
		<path class="st2" d="M163.7,1980.2v-11.6c0-22.7-8.3-44.7-23.4-62.1l-73-84.2c-15.1-17.4-23.4-39.4-23.4-62.1L44.5,990"/>
		<path class="st2" d="M183.5,1980.2l0-22.3c0-22.4-8.1-44.1-22.9-61.6l-73.5-86c-14.8-17.3-22.9-39.1-22.9-61.6L64.3,990"/>
		<path class="st2" d="M203.3,1980.2v-32.7c0-22.5-8.2-44.3-23.1-61.7l-73.1-85.2c-14.9-17.3-23.1-39.2-23.1-61.7V990"/>
		<path class="st2" d="M223,1980.2v-42.6c0-22.5-8.2-44.4-23.1-61.7l-72.9-85c-14.9-17.3-23.1-39.2-23.1-61.7v-178.4
			c0-22.5,8.2-44.4,23.1-61.7l73.2-85.4c14.9-17.3,23.1-39.2,23.1-61.7V990"/>
		<path class="st2" d="M243,1980.2V1454"/>
		<path class="st2" d="M283,1980.2v-372"/>
		<path class="st2" d="M302.6,1980.2v-320.6"/>
		<path class="st2" d="M322.5,1980.2v-297.4"/>
		<path class="st2" d="M342.3,1980.2v-274.1"/>
		<path class="st2" d="M362.2,1980.2v-251"/>
		<path class="st2" d="M382.1,1980.2v-227.7"/>
		<path class="st2" d="M401.9,1980.2v-169.8c0-22.5-8.1-44.3-22.9-61.6l-73.3-85.7c-14.8-17.3-22.9-39.1-22.9-61.6V990"/>
		<path class="st2" d="M421.8,1980.2v-180.1c0-22.6-8.2-44.5-23.2-61.8l-72.9-84.5c-15-17.3-23.2-39.3-23.2-61.8V990"/>
		<path class="st2" d="M441.6,1980.2v-190.1c0-22.5-8.1-44.3-22.9-61.6l-73.3-85.7c-14.8-17.3-22.9-39.1-22.9-61.6V990"/>
		<path class="st2" d="M481.3,1980.2v-693.9"/>
		<path class="st2" d="M501.2,1980.2v-718.4"/>
		<path class="st2" d="M521.1,1980.2v-741.5"/>
		<path class="st2" d="M540.9,1980.2v-764.8"/>
		<path class="st2" d="M123.9,1787.3v-225.9c0-22.5,8.2-44.4,23.1-61.7l73.3-85.4c14.9-17.3,23.1-39.2,23.1-61.7L243,990"/>
		<path class="st2" d="M143.8,1810.3v-238.9c0-22.5,8.1-44.3,22.9-61.6l73.3-85.7c14.8-17.3,22.9-39.1,22.9-61.6V990"/>
		<path class="st2" d="M163.7,1833.6v-252c0-22.4,8.1-44.1,22.9-61.5l73.2-85.7c14.8-17.3,22.9-39.1,22.9-61.5V1256"/>
		<path class="st2" d="M183.5,1856.7v-332.9"/>
		<path class="st2" d="M202.9,1879.4v-378.3"/>
		<path class="st2" d="M223,1925.1v-447.6"/>
		<path class="st2" d="M104,1549.2v-559"/>
		<path class="st2" d="M123.9,1492.9V990"/>
		<path class="st2" d="M143.8,1470.5V990"/>
		<path class="st2" d="M163.7,1446.5V990"/>
		<path class="st2" d="M183.5,1423.8V990"/>
		<path class="st2" d="M202.9,1400.4V990"/>
		<path class="st2" d="M362.2,1629.1V990"/>
		<path class="st2" d="M382.1,1652.3V990"/>
		<path class="st2" d="M401.9,1674.2v-361.8c0-22.5,8.2-44.3,23.1-61.7l73.2-85.4c14.9-17.3,23.1-39.2,23.1-61.7V990"/>
		<path class="st2" d="M421.8,1698.7v-375.9c0-22.5,8.2-44.4,23.2-61.8l72.9-84.7c15-17.3,23.2-39.2,23.2-61.8V990"/>
		<path class="st2" d="M441.7,1721.9v-389c0-22.4,8.1-44.1,22.9-61.6l73.3-85.7c14.8-17.3,22.9-39.1,22.9-61.6V990"/>
		<path class="st2" d="M461.5,1765.2V1343c0-22.5,8.1-44.3,22.9-61.6l73.3-85.7c14.8-17.3,22.9-39.1,22.9-61.6V990"/>
		<path class="st2" d="M401.9,1297.4V990"/>
		<path class="st2" d="M421.8,1254.5V990"/>
		<path class="st2" d="M441.7,1231.2V990"/>
		<path class="st2" d="M461.5,1208.3V990"/>
		<path class="st2" d="M481.3,1184.9V990"/>
		<path class="st2" d="M501.2,1161.8V990"/>
		<path class="st2" d="M461.5,1980.2v-200.3c0-22.5-8.2-44.3-22.9-61.6l-73.2-85.6c-14.9-17.3-22.9-39.1-22.9-61.6V990"/>
		<path class="st2" d="M263,1980.2v-549"/>
	</g>
</g>
</svg>
