<svg width="27" height="17" viewBox="0 0 27 17" fill="none" xmlns="http://www.w3.org/2000/svg">
<path d="M13.777 16.1641C12.2087 16.1379 10.6403 16.1183 9.07199 16.0806C8.14379 16.0593 7.21747 16.0151 6.28927 15.9677C5.5324 15.9284 4.77554 15.8711 4.0262 15.7598C2.9888 15.6059 2.20181 15.1394 1.67276 14.3472C1.45059 14.015 1.34516 13.6483 1.26608 13.2735C1.11546 12.5598 1.03827 11.838 0.981784 11.1145C0.898943 10.0588 0.85564 9.00139 0.87635 7.94237C0.893295 6.97337 0.942246 6.00765 1.0458 5.04193C1.11358 4.40684 1.20018 3.77339 1.37716 3.15304C1.67652 2.11202 2.73463 1.26906 3.95277 1.09556C4.73035 0.984258 5.51358 0.925333 6.29869 0.882776C8.44503 0.763288 10.5933 0.71582 12.7415 0.71582C14.5037 0.71582 16.2679 0.743646 18.0301 0.776383C18.9357 0.792751 19.8413 0.840218 20.747 0.887686C21.5114 0.92697 22.272 0.989169 23.0289 1.09556C23.8799 1.21505 24.5991 1.53095 25.1451 2.12348C25.4915 2.49831 25.6835 2.93043 25.7984 3.39365C25.9377 3.95999 26.0224 4.53124 26.0827 5.1074C26.2182 6.39394 26.2691 7.68211 26.2446 8.97356C26.2277 9.91146 26.1768 10.8494 26.0752 11.784C26.0017 12.4567 25.9245 13.1311 25.7043 13.7825C25.3409 14.853 24.5125 15.5126 23.2604 15.7385C22.7126 15.8367 22.1515 15.8826 21.5923 15.9218C19.237 16.0904 16.8741 16.1215 14.5113 16.1428C14.2665 16.1445 14.0218 16.1428 13.777 16.1428C13.7789 16.1494 13.7789 16.1559 13.777 16.1641ZM11.0301 11.7365C13.2366 10.6333 15.4301 9.53826 17.6366 8.43505C15.4301 7.32692 13.2348 6.22534 11.0301 5.11886C11.0301 7.33183 11.0301 9.5268 11.0301 11.7365Z" fill="#231F20"/>
</svg>
