<?xml version="1.0" standalone="no"?>
<!DOCTYPE svg PUBLIC "-//W3C//DTD SVG 20010904//EN"
 "http://www.w3.org/TR/2001/REC-SVG-20010904/DTD/svg10.dtd">
<svg version="1.0" xmlns="http://www.w3.org/2000/svg"
 width="512.000000pt" height="512.000000pt" viewBox="0 0 512.000000 512.000000"
 preserveAspectRatio="xMidYMid meet">

<g transform="translate(0.000000,512.000000) scale(0.100000,-0.100000)"
fill="#000000" stroke="none">
<path d="M975 5039 c-27 -6 -84 -26 -125 -47 -68 -33 -100 -61 -323 -282 -274
-270 -322 -327 -378 -445 -52 -111 -69 -181 -76 -315 -27 -532 270 -1256 811
-1980 161 -215 237 -302 455 -520 222 -222 380 -361 596 -525 591 -450 1232
-755 1746 -831 152 -22 371 -15 477 15 162 47 273 122 427 287 61 65 159 168
218 228 119 121 173 196 209 284 19 48 23 76 23 173 l0 116 -44 89 c-43 87
-50 95 -410 458 -216 218 -390 384 -424 407 -113 74 -244 101 -365 75 -131
-27 -175 -59 -415 -295 l-218 -216 -34 20 c-18 11 -66 38 -105 60 -314 174
-636 457 -947 830 -124 151 -234 313 -309 458 l-38 74 210 212 c220 223 270
286 300 379 25 75 24 198 0 272 -39 118 -76 162 -440 528 -193 195 -379 374
-412 398 -117 84 -275 120 -409 93z m214 -280 c34 -16 142 -118 403 -378 298
-297 361 -365 382 -411 32 -68 33 -124 4 -178 -22 -39 -279 -307 -419 -437
-102 -95 -118 -152 -78 -276 47 -145 223 -425 406 -645 59 -71 190 -213 293
-315 258 -259 476 -429 740 -575 58 -32 117 -66 133 -77 36 -24 123 -33 173
-17 30 10 98 71 284 256 233 229 249 243 302 259 66 19 111 14 178 -21 52 -26
748 -719 774 -770 37 -76 30 -155 -23 -235 -49 -72 -453 -488 -511 -525 -83
-52 -161 -75 -283 -81 -360 -19 -888 168 -1447 512 -298 183 -562 388 -865
671 -614 573 -1116 1379 -1271 2039 -35 149 -45 398 -20 495 36 141 47 155
334 442 239 239 272 268 317 282 62 20 132 14 194 -15z"/>
</g>
</svg>
