<svg width="22" height="21" viewBox="0 0 22 21" fill="none" xmlns="http://www.w3.org/2000/svg">
<path d="M10.6712 5.59308C7.6604 5.59308 5.16577 7.92211 5.16577 10.8232C5.16577 13.7243 7.61739 16.0533 10.6712 16.0533C13.7249 16.0533 16.1765 13.6834 16.1765 10.8232C16.1765 7.96297 13.6819 5.59308 10.6712 5.59308ZM10.6712 14.1737C8.73567 14.1737 7.14427 12.6619 7.14427 10.8232C7.14427 8.98447 8.73567 7.47265 10.6712 7.47265C12.6067 7.47265 14.1981 8.98447 14.1981 10.8232C14.1981 12.6619 12.6067 14.1737 10.6712 14.1737Z" fill="#231F20"/>
<path d="M16.3916 6.65106C17.0805 6.65106 17.6389 6.12054 17.6389 5.46612C17.6389 4.81169 17.0805 4.28117 16.3916 4.28117C15.7028 4.28117 15.1443 4.81169 15.1443 5.46612C15.1443 6.12054 15.7028 6.65106 16.3916 6.65106Z" fill="#231F20"/>
<path d="M19.6173 2.40525C18.4991 1.30202 16.9077 0.72998 15.1012 0.72998H6.24095C2.49902 0.72998 0.00439453 3.09987 0.00439453 6.65471V15.0311C0.00439453 16.788 0.606545 18.2999 1.81085 19.4031C2.97214 20.4655 4.52052 20.9966 6.28396 20.9966H15.0582C16.9077 20.9966 18.456 20.4246 19.5743 19.4031C20.7356 18.3407 21.3378 16.8289 21.3378 15.0719V6.65471C21.3378 4.93858 20.7356 3.46761 19.6173 2.40525ZM19.4453 15.0719C19.4453 16.3386 18.9722 17.3601 18.198 18.0547C17.4238 18.7493 16.3485 19.1171 15.0582 19.1171H6.28396C4.99364 19.1171 3.91837 18.7493 3.14418 18.0547C2.36999 17.3192 1.98289 16.2977 1.98289 15.0311V6.65471C1.98289 5.4289 2.36999 4.4074 3.14418 3.67192C3.87536 2.97729 4.99364 2.60955 6.28396 2.60955H15.1442C16.4345 2.60955 17.5098 2.97729 18.284 3.71278C19.0152 4.44826 19.4453 5.46976 19.4453 6.65471V15.0719Z" fill="#231F20"/>
</svg>
